<?xml version="1.0" encoding="UTF-8"?> <!-- Generator: Adobe Illustrator 21.0.0, SVG Export Plug-In . SVG Version: 6.00 Build 0) --> <svg xmlns="http://www.w3.org/2000/svg" xmlns:xlink="http://www.w3.org/1999/xlink" id="Layer_1" x="0px" y="0px" viewBox="0 0 100.4 100.4" style="enable-background:new 0 0 100.4 100.4;" xml:space="preserve"> <style type="text/css"> .st0{fill:#FDD430;} </style> <g> <path class="st0" d="M33.5,43.1h-9.1c-0.8,0-1.5,0.7-1.5,1.5v9c0,0.8,0.7,1.5,1.5,1.5h9.1c0.8,0,1.5-0.7,1.5-1.5v-9 C35,43.7,34.3,43.1,33.5,43.1z M32,52.1h-6.1v-6H32V52.1z"></path> <path class="st0" d="M54.6,43.1h-9.1c-0.8,0-1.5,0.7-1.5,1.5v9c0,0.8,0.7,1.5,1.5,1.5h9.1c0.8,0,1.5-0.7,1.5-1.5v-9 C56.1,43.7,55.4,43.1,54.6,43.1z M53.1,52.1H47v-6h6.1V52.1z"></path> <path class="st0" d="M33.5,63.7h-9.1c-0.8,0-1.5,0.7-1.5,1.5v9.1c0,0.8,0.7,1.5,1.5,1.5h9.1c0.8,0,1.5-0.7,1.5-1.5v-9.1 C35,64.3,34.3,63.7,33.5,63.7z M32,72.7h-6.1v-6.1H32V72.7z"></path> <path class="st0" d="M54.6,63.7h-9.1c-0.8,0-1.5,0.7-1.5,1.5v9.1c0,0.8,0.7,1.5,1.5,1.5h9.1c0.8,0,1.5-0.7,1.5-1.5v-9.1 C56.1,64.3,55.4,63.7,54.6,63.7z M53.1,72.7H47v-6.1h6.1V72.7z"></path> <path class="st0" d="M75,63.7h-9c-0.8,0-1.5,0.7-1.5,1.5v9.1c0,0.8,0.7,1.5,1.5,1.5h9c0.8,0,1.5-0.7,1.5-1.5v-9.1 C76.5,64.3,75.9,63.7,75,63.7z M73.5,72.7h-6v-6.1h6V72.7z"></path> <path class="st0" d="M86,16.1h-9.1v-1.7c0-3.1-2.5-5.6-5.6-5.6c-3.1,0-5.6,2.5-5.6,5.6v1.7H55.6v-1.7c0-3.1-2.5-5.6-5.6-5.6 c-3.1,0-5.6,2.5-5.6,5.6v1.7H34.3v-1.7c0-3.1-2.5-5.6-5.6-5.6c-3.1,0-5.6,2.5-5.6,5.6v1.7H14c-0.8,0-1.5,0.7-1.5,1.5v72.1 c0,0.8,0.7,1.5,1.5,1.5H86c0.8,0,1.5-0.7,1.5-1.5V17.6C87.5,16.8,86.9,16.1,86,16.1z M68.7,14.4c0-1.4,1.2-2.6,2.6-2.6 c1.4,0,2.6,1.2,2.6,2.6v7.7c0,1.4-1.2,2.6-2.6,2.6c-1.4,0-2.6-1.2-2.6-2.6C68.7,22.1,68.7,14.4,68.7,14.4z M50,11.8 c1.4,0,2.6,1.2,2.6,2.6v7.7c0,1.4-1.2,2.6-2.6,2.6c-1.4,0-2.6-1.2-2.6-2.6v-4.3c0-0.1,0-0.1,0-0.2s0-0.1,0-0.2v-3.1 C47.4,13,48.6,11.8,50,11.8z M26,14.4c0-1.4,1.2-2.6,2.6-2.6c1.4,0,2.6,1.2,2.6,2.6v7.7c0,1.4-1.2,2.6-2.6,2.6 c-1.4,0-2.6-1.2-2.6-2.6V14.4z M84.5,88.2H15.5V19.1H23v2.9c0,3.1,2.5,5.6,5.6,5.6c3.1,0,5.6-2.5,5.6-5.6v-2.9h10.1v2.9 c0,3.1,2.5,5.6,5.6,5.6c3.1,0,5.6-2.5,5.6-5.6v-2.9h10.1v2.9c0,3.1,2.5,5.6,5.6,5.6c3.1,0,5.6-2.5,5.6-5.6v-2.9h7.6L84.5,88.2 L84.5,88.2z"></path> <path class="st0" d="M76.7,38.7L69,48.2l-3.2-3c-0.6-0.6-1.5-0.5-2.1,0c-0.6,0.6-0.5,1.5,0,2.1l4.4,4.2c0.3,0.3,0.7,0.4,1,0.4 c0,0,0.1,0,0.1,0c0.4,0,0.8-0.2,1.1-0.6L79,40.6c0.5-0.6,0.4-1.6-0.2-2.1C78.2,38,77.2,38.1,76.7,38.7z"></path> </g> </svg> 