<?xml version="1.0" encoding="UTF-8"?> <!-- Generator: Adobe Illustrator 21.0.0, SVG Export Plug-In . SVG Version: 6.00 Build 0) --> <svg xmlns="http://www.w3.org/2000/svg" xmlns:xlink="http://www.w3.org/1999/xlink" id="Layer_1" x="0px" y="0px" viewBox="0 0 100.4 100.4" style="enable-background:new 0 0 100.4 100.4;" xml:space="preserve"> <style type="text/css"> .st0{fill:#FDD430;} </style> <g> <path class="st0" d="M63,68.1c-0.8,0-1.5,0.7-1.5,1.5v13.7h-49V18.7h49v11.4c0,0.8,0.7,1.5,1.5,1.5s1.5-0.7,1.5-1.5V17.2 c0-0.8-0.7-1.5-1.5-1.5H11c-0.8,0-1.5,0.7-1.5,1.5v67.6c0,0.8,0.7,1.5,1.5,1.5h52c0.8,0,1.5-0.7,1.5-1.5V69.6 C64.5,68.7,63.8,68.1,63,68.1z"></path> <path class="st0" d="M90.3,19.7c-0.1-0.4-0.3-0.7-0.6-1l-7.5-5c-0.3-0.2-0.7-0.3-1.1-0.2c-0.4,0.1-0.7,0.3-0.9,0.6l-5.5,8.4 c-0.1,0.1-0.1,0.2-0.1,0.3L45.3,67.1c-0.1,0.1-0.1,0.2-0.1,0.3c-0.2,0.2-0.3,0.4-0.3,0.7l-1.9,11.3c-0.1,0.6,0.2,1.2,0.7,1.5 c0.2,0.2,0.5,0.2,0.8,0.2c0.3,0,0.6-0.1,0.9-0.3l9.4-6.6c0.1-0.1,0.2-0.1,0.2-0.2c0.2-0.1,0.3-0.2,0.4-0.4l29.2-44.3 c0.1-0.1,0.1-0.2,0.1-0.3l5.5-8.3C90.3,20.5,90.4,20.1,90.3,19.7z M47.4,70.3l3.9,2.6l-5,3.5L47.4,70.3z M53.6,70.8l-5-3.3 l27.5-41.8l5,3.3L53.6,70.8z M82.8,26.5l-5-3.3l4-6.1l5,3.3L82.8,26.5z"></path> <path class="st0" d="M46.7,34.6c0.8,0,1.5-0.7,1.5-1.5s-0.7-1.5-1.5-1.5H18.8c-0.8,0-1.5,0.7-1.5,1.5s0.7,1.5,1.5,1.5H46.7z"></path> <path class="st0" d="M19.2,47h27.9c0.8,0,1.5-0.7,1.5-1.5S47.9,44,47.1,44H19.2c-0.8,0-1.5,0.7-1.5,1.5S18.4,47,19.2,47z"></path> </g> </svg> 