<?xml version="1.0" encoding="UTF-8"?> <!-- Generator: Adobe Illustrator 21.0.0, SVG Export Plug-In . SVG Version: 6.00 Build 0) --> <svg xmlns="http://www.w3.org/2000/svg" xmlns:xlink="http://www.w3.org/1999/xlink" id="Layer_1" x="0px" y="0px" viewBox="0 0 99.3 99.3" style="enable-background:new 0 0 99.3 99.3;" xml:space="preserve"> <style type="text/css"> .st0{fill:#FDD430;} </style> <g> <path class="st0" d="M32.8,53.1c-16.6,0-30.1,13.5-30.1,30.1c0,0.8,0.7,1.5,1.5,1.5h57.1c0.8,0,1.5-0.7,1.5-1.5 C62.8,66.6,49.4,53.1,32.8,53.1z M5.8,81.6c0.8-14.2,12.6-25.6,27-25.6c14.4,0,26.2,11.3,27,25.6H5.8z"></path> <path class="st0" d="M33.3,49.1c9.6,0,17.4-7.8,17.4-17.4c0-9.6-7.8-17.4-17.4-17.4c-9.6,0-17.4,7.8-17.4,17.4 C15.9,41.3,23.7,49.1,33.3,49.1z M33.3,17.3c7.9,0,14.4,6.5,14.4,14.4c0,7.9-6.5,14.4-14.4,14.4c-7.9,0-14.4-6.5-14.4-14.4 C18.9,23.8,25.3,17.3,33.3,17.3z"></path> <path class="st0" d="M73.5,60.4c-4.1,0-8,1.1-11.5,3.1c-0.7,0.4-1,1.3-0.5,2.1c0.4,0.7,1.3,1,2.1,0.5c3-1.8,6.5-2.7,10-2.7 c10.4,0,18.9,8,19.7,18.2H68.3c-0.8,0-1.5,0.7-1.5,1.5s0.7,1.5,1.5,1.5h26.4c0.8,0,1.5-0.7,1.5-1.5C96.2,70.6,86,60.4,73.5,60.4z"></path> <path class="st0" d="M73.9,55.9c7.3,0,13.3-6,13.3-13.3c0-7.3-6-13.3-13.3-13.3c-7.3,0-13.3,6-13.3,13.3 C60.6,49.9,66.5,55.9,73.9,55.9z M73.9,32.2c5.7,0,10.3,4.6,10.3,10.3c0,5.7-4.6,10.3-10.3,10.3c-5.7,0-10.3-4.6-10.3-10.3 C63.6,36.9,68.2,32.2,73.9,32.2z"></path> </g> </svg> 