<?xml version="1.0" encoding="UTF-8"?> <svg xmlns="http://www.w3.org/2000/svg" viewBox="0 0 287.72 225.41"> <defs> <style>.cls-1{fill:#fff;}</style> </defs> <title>UFS_text_logo_white</title> <g id="Layer_2" data-name="Layer 2"> <g id="Layer_1-2" data-name="Layer 1"> <path class="cls-1" d="M5.33.95V36.34c0,4.82.95,9.34,7,9.34s7.08-4.6,7.08-9.34V.95H24.3V37.8c0,7.59-4.74,12.48-12,12.48S.44,45.24.44,38V.95Z"></path> <path class="cls-1" d="M40,21H41.3L54.87,0l3.94,2.48L45.46,23.06l16,25-4.09,2.48L41.67,25.39H40V49.62H35.1V.95H40Z"></path> <path class="cls-1" d="M67.94.95H81.07c4.82,0,10.87,4.16,10.87,12.92,0,6-2.41,11.67-8.39,13.72L93.62,48.45l-4.38,2.12L78.3,27.95H72.83V49.62H67.94Zm4.89,22.62H80c4.23,0,6.86-3.14,6.86-9.7,0-6.35-3.07-8.54-8-8.54h-6Z"></path> <path class="cls-1" d="M104.2,34.59l-3.79,16-4.82-1.31L107.92.95h5.84l12.33,48.3-4.82,1.31-3.79-16Zm6.71-27.14h-.15l-5.4,22.77h10.95Z"></path> <path class="cls-1" d="M141.2,5.33h-6.57V.95h18.1V5.33h-6.64V45.24h6.64v4.38h-18.1V45.24h6.57Z"></path> <path class="cls-1" d="M163.82.95H170L184.4,41.88l.15-.15-.22-10.87V.95h4.89V49.62h-6.13l-14.45-41-.15.15.22,11V49.62h-4.89Z"></path> <path class="cls-1" d="M206.87,5.33h-6.57V.95h18.1V5.33h-6.64V45.24h6.64v4.38h-18.1V45.24h6.57Z"></path> <path class="cls-1" d="M235.55,34.59l-3.79,16-4.82-1.31L239.27.95h5.84l12.33,48.3-4.82,1.31-3.79-16Zm6.71-27.14h-.15l-5.4,22.77h10.95Z"></path> <path class="cls-1" d="M262.33.95h6.13l14.45,40.94.15-.15-.22-10.87V.95h4.89V49.62h-6.13l-14.45-41-.15.15.22,11V49.62h-4.89Z"></path> <path class="cls-1" d="M3.28,88.52H27.22v4.38h-19v16.05h16v4.38h-16v23.86H3.28Z"></path> <path class="cls-1" d="M42.69,92.89H36.12V88.52h18.1v4.38H47.58v39.91h6.64v4.38H36.12v-4.38h6.57Z"></path> <path class="cls-1" d="M68.45,88.52h4.89v44.29h20v4.38H68.45Z"></path> <path class="cls-1" d="M117.85,88.52H124l1.46,48.67h-5.18l-.95-40.57h-.15l-8.32,24.44-8.32-24.44h-.15l-.95,40.57H96.32l1.46-48.67h6.06l7,20.65Z"></path> <path class="cls-1" d="M19.34,187.17c-.8-3.58-2.55-7.15-6.71-7.15-4.6,0-6.42,3.72-6.42,7.81s.8,5.18,8.46,9.78c6,3.58,10.07,6.57,10.07,14.08s-4.09,13.72-12.26,13.72C3.87,225.41.73,219.72,0,212l4.89-.66c.66,5.4,1.82,9.49,7.74,9.49,4.23,0,7.22-2.85,7.22-8.68,0-6.42-4.16-8.61-9.19-11.53C5,197.32,1.31,195,1.31,187.83c0-6.57,4.38-12.4,11.31-12.4s10.21,4.89,11.46,11Z"></path> <path class="cls-1" d="M58.81,217.46c-2.85,4.6-7.08,8-12.62,8-12.7,0-14.59-15.32-14.59-25s1.9-25,14.59-25c5.54,0,9.34,3.21,11.89,7.88l-4.16,2.48c-1.53-3.06-4-5.76-7.73-5.76-8.9,0-9.49,14-9.49,20.43s.58,20.36,9.49,20.36c3.79,0,6.79-3.14,8.61-6.13Z"></path> <path class="cls-1" d="M65.6,176.08h4.89v20.43h15V176.08h4.89v48.67H85.52V200.89h-15v23.86H65.6Z"></path> <path class="cls-1" d="M124.34,200.38c0,6.13.22,25-13.5,25s-13.5-18.75-13.5-25c0-8,.51-25,13.5-25C124.56,175.43,124.34,194,124.34,200.38Zm-21.89,0c0,13.13,1.53,20.43,8.39,20.43,8.46,0,8.39-12,8.39-20.43,0-9.19.22-20.36-8.39-20.36S102.45,193.23,102.45,200.38Z"></path> <path class="cls-1" d="M157.18,200.38c0,6.13.22,25-13.5,25s-13.5-18.75-13.5-25c0-8,.51-25,13.5-25C157.4,175.43,157.18,194,157.18,200.38Zm-21.89,0c0,13.13,1.53,20.43,8.39,20.43,8.46,0,8.39-12,8.39-20.43,0-9.19.22-20.36-8.39-20.36S135.29,193.23,135.29,200.38Z"></path> <path class="cls-1" d="M167,176.08h4.89v44.29h20v4.38H167Z"></path> </g> </g> </svg> 